<svg width="21" height="20" viewBox="0 0 21 20" fill="none" xmlns="http://www.w3.org/2000/svg">
<g clip-path="url(#clip0_2_80)">
<path d="M10.9419 20C8.22521 20 5.78354 18.3417 4.77521 15.8167L2.25021 9.475C1.99188 8.81667 2.60854 8.15833 3.28354 8.375L3.94188 8.59167C4.40854 8.74167 4.79188 9.1 4.97521 9.55833L6.15021 12.5H6.77521L6.77521 2.70833C6.77521 2.13333 7.24188 1.66667 7.81688 1.66667C8.39188 1.66667 8.85854 2.13333 8.85854 2.70833L8.85854 10H9.69188L9.69188 1.04167C9.69188 0.466667 10.1585 0 10.7335 0C11.3085 0 11.7752 0.466667 11.7752 1.04167L11.7752 10H12.6085L12.6085 2.29167C12.6085 1.71667 13.0752 1.25 13.6502 1.25C14.2252 1.25 14.6919 1.71667 14.6919 2.29167L14.6919 10H15.5252V4.79167C15.5252 4.21667 15.9919 3.75 16.5669 3.75C17.1419 3.75 17.6085 4.21667 17.6085 4.79167L17.6085 13.3333C17.6085 17.0167 14.6252 20 10.9419 20Z" fill="white"/>
</g>
<defs>
<clipPath id="clip0_2_80">
<rect width="20" height="20" fill="white" transform="translate(0.108521)"/>
</clipPath>
</defs>
</svg>
