<svg width="17" height="16" viewBox="0 0 17 16" fill="none" xmlns="http://www.w3.org/2000/svg">
<path d="M6.21802 7.42857L4.50373 7.42857C4.34594 7.42857 4.21802 7.55649 4.21802 7.71429V8.85715C4.21802 9.01494 4.34594 9.14286 4.50373 9.14286H6.21802C6.37581 9.14286 6.50373 9.01494 6.50373 8.85715V7.71429C6.50373 7.55649 6.37581 7.42857 6.21802 7.42857Z" fill="#171A1F"/>
<path d="M9.64673 7.42857L7.93244 7.42857C7.77465 7.42857 7.64673 7.55649 7.64673 7.71429V8.85715C7.64673 9.01494 7.77465 9.14286 7.93244 9.14286H9.64673C9.80452 9.14286 9.93244 9.01494 9.93244 8.85715V7.71429C9.93244 7.55649 9.80452 7.42857 9.64673 7.42857Z" fill="#171A1F"/>
<path d="M6.21802 10.2857H4.50373C4.34594 10.2857 4.21802 10.4136 4.21802 10.5714V11.7143C4.21802 11.8721 4.34594 12 4.50373 12H6.21802C6.37581 12 6.50373 11.8721 6.50373 11.7143V10.5714C6.50373 10.4136 6.37581 10.2857 6.21802 10.2857Z" fill="#171A1F"/>
<path d="M9.64673 10.2857H7.93244C7.77465 10.2857 7.64673 10.4136 7.64673 10.5714V11.7143C7.64673 11.8721 7.77465 12 7.93244 12H9.64673C9.80452 12 9.93244 11.8721 9.93244 11.7143V10.5714C9.93244 10.4136 9.80452 10.2857 9.64673 10.2857Z" fill="#171A1F"/>
<path d="M13.0752 7.42857L11.3609 7.42857C11.2031 7.42857 11.0752 7.55649 11.0752 7.71429V8.85715C11.0752 9.01494 11.2031 9.14286 11.3609 9.14286H13.0752C13.233 9.14286 13.3609 9.01494 13.3609 8.85715V7.71429C13.3609 7.55649 13.233 7.42857 13.0752 7.42857Z" fill="#171A1F"/>
<path d="M5.36098 4.57142C5.67641 4.57142 5.93241 4.316 5.93241 4L5.93241 1.71428C5.93241 1.39828 5.67641 1.14285 5.36098 1.14285C5.04555 1.14285 4.78955 1.39828 4.78955 1.71428L4.78955 4C4.78955 4.316 5.04555 4.57142 5.36098 4.57142Z" fill="#171A1F"/>
<path d="M15.0752 2.85715L13.3609 2.85715V3.936C13.3609 4.50572 12.9729 5.03486 12.4112 5.12743C11.6958 5.24515 11.0752 4.69372 11.0752 4.00058V2.85715L6.5038 2.85715V3.936C6.5038 4.50572 6.1158 5.03486 5.55409 5.12743C4.83866 5.24515 4.21809 4.69372 4.21809 4.00058V2.85715L2.5038 2.85715C2.18837 2.85715 1.93237 3.11315 1.93237 3.42858L1.93237 13.7143C1.93237 14.0297 2.18837 14.2857 2.5038 14.2857L15.0752 14.2857C15.3907 14.2857 15.6467 14.0297 15.6467 13.7143L15.6467 3.42858C15.6467 3.11315 15.3907 2.85715 15.0752 2.85715ZM14.5038 13.1429L3.07523 13.1429L3.07523 6.28572L14.5038 6.28572L14.5038 13.1429Z" fill="#171A1F"/>
<path d="M12.2182 4.57142C12.5336 4.57142 12.7896 4.316 12.7896 4V1.71428C12.7896 1.39828 12.5336 1.14285 12.2182 1.14285C11.9027 1.14285 11.6467 1.39828 11.6467 1.71428V4C11.6467 4.316 11.9027 4.57142 12.2182 4.57142Z" fill="#171A1F"/>
</svg>
