<svg width="13" height="12" viewBox="0 0 13 12" fill="none" xmlns="http://www.w3.org/2000/svg">
<g clip-path="url(#clip0_2_152)">
<path d="M2.93234 10.2857C2.70522 10.285 2.48759 10.1945 2.327 10.0339C2.1664 9.87331 2.07587 9.65568 2.0752 9.42856L2.0752 1.71428L4.64662 1.71428L5.50377 2.99999L10.2181 2.99999V3.42856" stroke="#9095A1" stroke-width="1.02857" stroke-miterlimit="10" stroke-linecap="square"/>
<path d="M3.78939 4.71428L3.78939 9.42856C3.78872 9.65568 3.69819 9.87331 3.53759 10.0339C3.37699 10.1945 3.15937 10.285 2.93225 10.2857L10.6465 10.2857C10.8737 10.285 11.0913 10.1945 11.2519 10.0339C11.4125 9.87331 11.503 9.65568 11.5037 9.42856L11.5037 4.71428L3.78939 4.71428Z" stroke="#9095A1" stroke-width="1.02857" stroke-miterlimit="10" stroke-linecap="square"/>
</g>
<defs>
<clipPath id="clip0_2_152">
<rect width="12" height="12" fill="white" transform="translate(0.789429)"/>
</clipPath>
</defs>
</svg>
