<svg width="17" height="16" viewBox="0 0 17 16" fill="none" xmlns="http://www.w3.org/2000/svg">
<path d="M12.7752 12.6667L3.44185 12.6667L3.44185 3.33333L8.10852 3.33333V2L3.44185 2C3.08823 2 2.74909 2.14048 2.49904 2.39052C2.249 2.64057 2.10852 2.97971 2.10852 3.33333L2.10852 12.6667C2.10852 13.0203 2.249 13.3594 2.49904 13.6095C2.74909 13.8595 3.08823 14 3.44185 14L12.7752 14C13.5085 14 14.1085 13.4 14.1085 12.6667V8H12.7752V12.6667ZM9.44185 2V3.33333L11.8352 3.33333L5.28185 9.88667L6.22185 10.8267L12.7752 4.27333L12.7752 6.66667H14.1085L14.1085 2L9.44185 2Z" fill="white"/>
</svg>
