<svg width="20" height="20" viewBox="0 0 20 20" fill="none" xmlns="http://www.w3.org/2000/svg">
<path d="M15.6502 15.2077L4.56685 15.2077L4.56685 4.12435L10.1085 4.12435V2.54102L4.56685 2.54102C4.14693 2.54102 3.7442 2.70783 3.44727 3.00476C3.15034 3.3017 2.98352 3.70442 2.98352 4.12435L2.98352 15.2077C2.98352 15.6276 3.15034 16.0303 3.44727 16.3273C3.7442 16.6242 4.14693 16.791 4.56685 16.791L15.6502 16.791C16.521 16.791 17.2335 16.0785 17.2335 15.2077L17.2335 9.66602H15.6502L15.6502 15.2077ZM11.6919 2.54102V4.12435L14.5339 4.12435L6.75185 11.9064L7.8681 13.0227L15.6502 5.2406L15.6502 8.08268H17.2335L17.2335 2.54102L11.6919 2.54102Z" fill="#BDC1CA"/>
</svg>
