<svg width="15" height="16" viewBox="0 0 15 16" fill="none" xmlns="http://www.w3.org/2000/svg">
<path d="M7.49986 14.4203C6.22841 14.4203 4.98551 14.0432 3.92834 13.3368C2.87117 12.6305 2.0472 11.6265 1.56064 10.4518C1.07407 9.27712 0.946767 7.98455 1.19482 6.73753C1.44286 5.49051 2.05513 4.34505 2.95418 3.446C3.85323 2.54695 4.99869 1.93468 6.24571 1.68664C7.49273 1.43859 8.7853 1.5659 9.95997 2.05246C11.1346 2.53902 12.1386 3.36299 12.845 4.42016C13.5514 5.47733 13.9284 6.72023 13.9284 7.99168C13.9266 9.69608 13.2487 11.3301 12.0435 12.5353C10.8383 13.7405 9.20426 14.4184 7.49986 14.4203ZM7.49986 2.63454C6.44032 2.63454 5.40457 2.94873 4.52359 3.53738C3.64262 4.12603 2.95598 4.9627 2.55051 5.94159C2.14504 6.92048 2.03895 7.99763 2.24566 9.03681C2.45236 10.076 2.96258 11.0305 3.71179 11.7798C4.461 12.529 5.41555 13.0392 6.45474 13.2459C7.49392 13.4526 8.57106 13.3465 9.54995 12.941C10.5288 12.5356 11.3655 11.8489 11.9542 10.968C12.5428 10.087 12.857 9.05123 12.857 7.99168C12.8554 6.57136 12.2905 5.20966 11.2862 4.20534C10.2819 3.20101 8.92019 2.6361 7.49986 2.63454Z" fill="#BDC1CA"/>
</svg>
